
<svg width="13" height="9" viewBox="0 0 13 9" fill="none" xmlns="http://www.w3.org/2000/svg">
<path d="M0.132 1.004C0.132 0.66 0.384 0.487999 0.888 0.487999C1.104 0.487999 1.516 0.496 2.124 0.512C2.796 0.544 3.304 0.56 3.648 0.56C3.928 0.56 4.268 0.544 4.668 0.512C4.94 0.496 5.112 0.487999 5.184 0.487999C5.624 0.504 5.996 0.584 6.3 0.728C6.388 0.768 6.46 0.816 6.516 0.872C6.572 0.928 6.6 1.02 6.6 1.148C6.6 1.324 6.544 1.476 6.432 1.604C6.32 1.724 6.184 1.784 6.024 1.784C5.848 1.784 5.592 1.76 5.256 1.712C4.96 1.656 4.7 1.628 4.476 1.628C4.26 1.628 4.096 1.632 3.984 1.64C3.96 1.904 3.948 2.536 3.948 3.536C3.948 4.728 3.984 5.936 4.056 7.16L4.08 7.508C4.08 7.836 3.892 8 3.516 8C3.22 8 3.02 7.932 2.916 7.796C2.812 7.652 2.76 7.436 2.76 7.148C2.76 6.58 2.744 5.872 2.712 5.024C2.68 4.32 2.664 3.82 2.664 3.524C2.664 3.324 2.688 2.712 2.736 1.688L1.332 1.7C0.884 1.7 0.572 1.66 0.396 1.58C0.22 1.492 0.132 1.3 0.132 1.004Z" fill="#15A9FF"/>
<path d="M8.15456 8.036C7.97056 8.036 7.83056 7.988 7.73456 7.892C7.63856 7.788 7.59056 7.684 7.59056 7.58C7.63856 7.292 7.66656 6.984 7.67456 6.656C7.68256 6.328 7.68656 6.132 7.68656 6.068V5.636C7.68656 5.308 7.68256 5.02 7.67456 4.772C7.66656 4.516 7.65856 4.3 7.65056 4.124C7.61856 3.42 7.60256 2.872 7.60256 2.48V2.108C7.61856 1.724 7.63856 1.388 7.66256 1.1C7.67056 0.987999 7.73856 0.868 7.86656 0.74C8.00256 0.612 8.18656 0.532 8.41856 0.5C9.17856 0.42 10.1226 0.379999 11.2506 0.379999H11.6346C11.9146 0.379999 12.1906 0.431999 12.4626 0.536C12.7426 0.64 12.8826 0.816 12.8826 1.064C12.8826 1.232 12.8426 1.368 12.7626 1.472C12.6826 1.568 12.5266 1.616 12.2946 1.616C12.1906 1.616 12.0706 1.608 11.9346 1.592C11.7986 1.576 11.7026 1.564 11.6466 1.556C11.3426 1.508 11.1066 1.484 10.9386 1.484C10.0106 1.484 9.30656 1.548 8.82656 1.676V2.336V3.716C9.37056 3.716 9.93856 3.692 10.5306 3.644C10.9626 3.612 11.2426 3.596 11.3706 3.596C11.5546 3.596 11.7106 3.64 11.8386 3.728C11.9746 3.808 12.0426 3.932 12.0426 4.1C12.0426 4.516 11.7586 4.724 11.1906 4.724C11.0546 4.724 10.8506 4.74 10.5786 4.772C10.2746 4.804 10.0386 4.82 9.87056 4.82C9.76656 4.82 9.61856 4.812 9.42656 4.796C9.17856 4.78 9.01056 4.776 8.92256 4.784C8.91456 4.992 8.91856 5.316 8.93456 5.756L8.94656 6.56C8.94656 6.832 8.94256 7.036 8.93456 7.172C8.92656 7.3 8.90256 7.44 8.86256 7.592C8.83856 7.72 8.76656 7.828 8.64656 7.916C8.52656 7.996 8.36256 8.036 8.15456 8.036Z" fill="#F86CFF"/>
</svg>
